<mxfile host="app.diagrams.net" modified="2021-07-19T11:51:35.613Z" agent="5.0 (X11; Linux x86_64) AppleWebKit/537.36 (KHTML, like Gecko) Chrome/87.0.4280.88 Safari/537.36" etag="zgjGvbzWT_fJwc4N0Q2k" version="14.8.6" type="github" pages="4">
  <diagram id="gtDUkcSWrESbw5Lg5LmW" name="V1">
    <mxGraphModel dx="981" dy="533" grid="1" gridSize="10" guides="1" tooltips="1" connect="1" arrows="1" fold="1" page="1" pageScale="1" pageWidth="1654" pageHeight="2336" background="#ffffff" math="0" shadow="0">
      <root>
        <mxCell id="OffQlbvgle5IhohQ3WXz-0" />
        <mxCell id="OffQlbvgle5IhohQ3WXz-1" parent="OffQlbvgle5IhohQ3WXz-0" />
        <mxCell id="2NAJvSuacLWGLpEZ4n9c-0" value="&lt;font style=&quot;font-size: 12px&quot;&gt;Identification of temporal regularity&lt;/font&gt;" style="shape=umlFrame;whiteSpace=wrap;html=1;fontSize=16;strokeWidth=3;fillColor=#ffff88;fontColor=#000000;strokeColor=#4D4D4D;dashed=1;width=200;height=30;dashPattern=1 1;" parent="OffQlbvgle5IhohQ3WXz-1" vertex="1">
          <mxGeometry x="270" y="320" width="450" height="70" as="geometry" />
        </mxCell>
        <mxCell id="2NAJvSuacLWGLpEZ4n9c-16" value="&lt;font style=&quot;font-size: 12px&quot;&gt;Features extraction&lt;/font&gt;" style="shape=umlFrame;whiteSpace=wrap;html=1;fontSize=16;strokeWidth=3;fontColor=#000000;dashed=1;width=180;height=30;fillColor=#ffff88;dashPattern=1 1;strokeColor=#4D4D4D;" parent="OffQlbvgle5IhohQ3WXz-1" vertex="1">
          <mxGeometry x="270" y="240" width="450" height="80" as="geometry" />
        </mxCell>
        <mxCell id="2NAJvSuacLWGLpEZ4n9c-1" style="edgeStyle=orthogonalEdgeStyle;rounded=0;orthogonalLoop=1;jettySize=auto;html=1;exitX=0.5;exitY=1;exitDx=0;exitDy=0;strokeColor=#242424;strokeWidth=3;entryX=0.5;entryY=0;entryDx=0;entryDy=0;" parent="OffQlbvgle5IhohQ3WXz-1" source="2NAJvSuacLWGLpEZ4n9c-2" target="2NAJvSuacLWGLpEZ4n9c-6" edge="1">
          <mxGeometry relative="1" as="geometry">
            <mxPoint x="570" y="205" as="targetPoint" />
            <Array as="points">
              <mxPoint x="785" y="230" />
              <mxPoint x="565" y="230" />
            </Array>
          </mxGeometry>
        </mxCell>
        <mxCell id="2NAJvSuacLWGLpEZ4n9c-2" value="channel 3" style="rounded=0;whiteSpace=wrap;html=1;fillColor=#cdeb8b;strokeColor=#000000;fontColor=#000000;fontSize=16;strokeWidth=2;" parent="OffQlbvgle5IhohQ3WXz-1" vertex="1">
          <mxGeometry x="680" y="180" width="210" height="40" as="geometry" />
        </mxCell>
        <mxCell id="2NAJvSuacLWGLpEZ4n9c-5" style="edgeStyle=orthogonalEdgeStyle;rounded=0;orthogonalLoop=1;jettySize=auto;html=1;exitX=0.5;exitY=1;exitDx=0;exitDy=0;entryX=0.5;entryY=0;entryDx=0;entryDy=0;fontSize=16;fontColor=#000000;strokeColor=#242424;strokeWidth=3;" parent="OffQlbvgle5IhohQ3WXz-1" source="2NAJvSuacLWGLpEZ4n9c-6" target="2NAJvSuacLWGLpEZ4n9c-10" edge="1">
          <mxGeometry relative="1" as="geometry">
            <mxPoint x="565" y="290" as="targetPoint" />
          </mxGeometry>
        </mxCell>
        <mxCell id="2NAJvSuacLWGLpEZ4n9c-6" value="Convs 1D" style="rounded=0;whiteSpace=wrap;html=1;fillColor=#cdeb8b;strokeColor=#000000;fontColor=#000000;fontSize=16;strokeWidth=2;" parent="OffQlbvgle5IhohQ3WXz-1" vertex="1">
          <mxGeometry x="430" y="280" width="270" height="20" as="geometry" />
        </mxCell>
        <mxCell id="2NAJvSuacLWGLpEZ4n9c-9" style="edgeStyle=orthogonalEdgeStyle;rounded=0;orthogonalLoop=1;jettySize=auto;html=1;exitX=0.5;exitY=1;exitDx=0;exitDy=0;fontSize=16;fontColor=#000000;strokeColor=#242424;strokeWidth=3;" parent="OffQlbvgle5IhohQ3WXz-1" source="2NAJvSuacLWGLpEZ4n9c-10" target="2NAJvSuacLWGLpEZ4n9c-12" edge="1">
          <mxGeometry relative="1" as="geometry" />
        </mxCell>
        <mxCell id="2NAJvSuacLWGLpEZ4n9c-10" value="LSTMs" style="rounded=0;whiteSpace=wrap;html=1;fillColor=#cdeb8b;strokeColor=#000000;fontColor=#000000;fontSize=16;strokeWidth=2;" parent="OffQlbvgle5IhohQ3WXz-1" vertex="1">
          <mxGeometry x="475" y="350" width="180" height="20" as="geometry" />
        </mxCell>
        <mxCell id="2NAJvSuacLWGLpEZ4n9c-11" style="edgeStyle=orthogonalEdgeStyle;rounded=0;orthogonalLoop=1;jettySize=auto;html=1;exitX=0.5;exitY=1;exitDx=0;exitDy=0;fontSize=16;fontColor=#000000;strokeColor=#242424;strokeWidth=3;" parent="OffQlbvgle5IhohQ3WXz-1" source="2NAJvSuacLWGLpEZ4n9c-12" target="2NAJvSuacLWGLpEZ4n9c-14" edge="1">
          <mxGeometry relative="1" as="geometry" />
        </mxCell>
        <mxCell id="2NAJvSuacLWGLpEZ4n9c-12" value="Denses" style="rounded=0;whiteSpace=wrap;html=1;fillColor=#cdeb8b;strokeColor=#000000;fontColor=#000000;fontSize=16;strokeWidth=2;" parent="OffQlbvgle5IhohQ3WXz-1" vertex="1">
          <mxGeometry x="490" y="430" width="150" height="20" as="geometry" />
        </mxCell>
        <mxCell id="2NAJvSuacLWGLpEZ4n9c-14" value="R" style="rounded=0;whiteSpace=wrap;html=1;fillColor=#cdeb8b;strokeColor=#000000;fontColor=#000000;fontSize=16;strokeWidth=2;" parent="OffQlbvgle5IhohQ3WXz-1" vertex="1">
          <mxGeometry x="545" y="500" width="40" height="40" as="geometry" />
        </mxCell>
        <mxCell id="2NAJvSuacLWGLpEZ4n9c-15" value="&lt;span style=&quot;font-size: 13px&quot;&gt;features &lt;/span&gt;&lt;span style=&quot;font-size: 13px&quot;&gt;comparisons&lt;/span&gt;" style="shape=umlFrame;whiteSpace=wrap;html=1;fontSize=16;strokeWidth=3;fillColor=#ffff88;fontColor=#000000;dashed=1;width=170;height=30;dashPattern=1 1;strokeColor=#4D4D4D;" parent="OffQlbvgle5IhohQ3WXz-1" vertex="1">
          <mxGeometry x="270" y="390" width="450" height="80" as="geometry" />
        </mxCell>
        <mxCell id="2NAJvSuacLWGLpEZ4n9c-20" style="edgeStyle=orthogonalEdgeStyle;rounded=0;orthogonalLoop=1;jettySize=auto;html=1;exitX=0.5;exitY=1;exitDx=0;exitDy=0;strokeColor=#242424;strokeWidth=3;entryX=0.5;entryY=0;entryDx=0;entryDy=0;" parent="OffQlbvgle5IhohQ3WXz-1" source="2NAJvSuacLWGLpEZ4n9c-17" target="2NAJvSuacLWGLpEZ4n9c-6" edge="1">
          <mxGeometry relative="1" as="geometry" />
        </mxCell>
        <mxCell id="2NAJvSuacLWGLpEZ4n9c-17" value="channel 2" style="rounded=0;whiteSpace=wrap;html=1;fillColor=#cdeb8b;strokeColor=#000000;fontColor=#000000;fontSize=16;strokeWidth=2;" parent="OffQlbvgle5IhohQ3WXz-1" vertex="1">
          <mxGeometry x="460" y="180" width="210" height="40" as="geometry" />
        </mxCell>
        <mxCell id="2NAJvSuacLWGLpEZ4n9c-21" style="edgeStyle=orthogonalEdgeStyle;rounded=0;orthogonalLoop=1;jettySize=auto;html=1;exitX=0.5;exitY=1;exitDx=0;exitDy=0;strokeColor=#242424;strokeWidth=3;entryX=0.5;entryY=0;entryDx=0;entryDy=0;" parent="OffQlbvgle5IhohQ3WXz-1" source="2NAJvSuacLWGLpEZ4n9c-18" target="2NAJvSuacLWGLpEZ4n9c-6" edge="1">
          <mxGeometry relative="1" as="geometry">
            <Array as="points">
              <mxPoint x="345" y="230" />
              <mxPoint x="565" y="230" />
            </Array>
          </mxGeometry>
        </mxCell>
        <mxCell id="2NAJvSuacLWGLpEZ4n9c-18" value="channel 1" style="rounded=0;whiteSpace=wrap;html=1;fillColor=#cdeb8b;strokeColor=#000000;fontColor=#000000;fontSize=16;strokeWidth=2;" parent="OffQlbvgle5IhohQ3WXz-1" vertex="1">
          <mxGeometry x="240" y="180" width="210" height="40" as="geometry" />
        </mxCell>
      </root>
    </mxGraphModel>
  </diagram>
  <diagram id="DtmEywC5HmczspbBngJv" name="V-2">
    <mxGraphModel dx="813" dy="442" grid="1" gridSize="10" guides="1" tooltips="1" connect="1" arrows="1" fold="1" page="1" pageScale="1" pageWidth="1654" pageHeight="2336" background="#ffffff" math="0" shadow="0">
      <root>
        <mxCell id="NejRVtAzuMSsaHZtRfnZ-0" />
        <mxCell id="NejRVtAzuMSsaHZtRfnZ-1" parent="NejRVtAzuMSsaHZtRfnZ-0" />
        <mxCell id="YrsRfxU72Jp1Rr0Pop5z-0" value="&lt;span style=&quot;font-size: 12px&quot;&gt;Identification of temporal regularity&lt;/span&gt;" style="shape=umlFrame;whiteSpace=wrap;html=1;fontSize=16;strokeWidth=3;fillColor=#ffff88;fontColor=#000000;strokeColor=#4D4D4D;dashed=1;width=210;height=30;dashPattern=1 1;" parent="NejRVtAzuMSsaHZtRfnZ-1" vertex="1">
          <mxGeometry x="270" y="320" width="450" height="70" as="geometry" />
        </mxCell>
        <mxCell id="YrsRfxU72Jp1Rr0Pop5z-26" value="&lt;font style=&quot;font-size: 12px&quot;&gt;Features extraction&lt;/font&gt;" style="shape=umlFrame;whiteSpace=wrap;html=1;fontSize=16;strokeWidth=3;fontColor=#000000;dashed=1;width=180;height=30;fillColor=#ffff88;dashPattern=1 1;strokeColor=#4D4D4D;" parent="NejRVtAzuMSsaHZtRfnZ-1" vertex="1">
          <mxGeometry x="270" y="240" width="450" height="80" as="geometry" />
        </mxCell>
        <mxCell id="YrsRfxU72Jp1Rr0Pop5z-1" style="edgeStyle=orthogonalEdgeStyle;rounded=0;orthogonalLoop=1;jettySize=auto;html=1;exitX=0.5;exitY=1;exitDx=0;exitDy=0;strokeColor=#242424;strokeWidth=3;entryX=0.5;entryY=0;entryDx=0;entryDy=0;" parent="NejRVtAzuMSsaHZtRfnZ-1" source="YrsRfxU72Jp1Rr0Pop5z-2" target="YrsRfxU72Jp1Rr0Pop5z-6" edge="1">
          <mxGeometry relative="1" as="geometry">
            <mxPoint x="570" y="205" as="targetPoint" />
            <Array as="points">
              <mxPoint x="685" y="230" />
              <mxPoint x="565" y="230" />
            </Array>
          </mxGeometry>
        </mxCell>
        <mxCell id="YrsRfxU72Jp1Rr0Pop5z-2" value="ECG (3 channels, 400 pts)" style="rounded=0;whiteSpace=wrap;html=1;fillColor=#cdeb8b;strokeColor=#000000;fontColor=#000000;fontSize=16;strokeWidth=2;" parent="NejRVtAzuMSsaHZtRfnZ-1" vertex="1">
          <mxGeometry x="580" y="180" width="210" height="40" as="geometry" />
        </mxCell>
        <mxCell id="YrsRfxU72Jp1Rr0Pop5z-3" style="edgeStyle=orthogonalEdgeStyle;rounded=0;orthogonalLoop=1;jettySize=auto;html=1;exitX=0.5;exitY=1;exitDx=0;exitDy=0;strokeColor=#242424;strokeWidth=3;entryX=0.5;entryY=0;entryDx=0;entryDy=0;" parent="NejRVtAzuMSsaHZtRfnZ-1" source="YrsRfxU72Jp1Rr0Pop5z-4" target="YrsRfxU72Jp1Rr0Pop5z-6" edge="1">
          <mxGeometry relative="1" as="geometry">
            <mxPoint x="570" y="210" as="targetPoint" />
            <Array as="points">
              <mxPoint x="455" y="230" />
              <mxPoint x="565" y="230" />
            </Array>
          </mxGeometry>
        </mxCell>
        <mxCell id="YrsRfxU72Jp1Rr0Pop5z-4" value="Last 400 R predicitions" style="rounded=0;whiteSpace=wrap;html=1;fillColor=#cdeb8b;fontSize=16;fontColor=#000000;strokeColor=#000000;strokeWidth=2;" parent="NejRVtAzuMSsaHZtRfnZ-1" vertex="1">
          <mxGeometry x="365" y="180" width="180" height="40" as="geometry" />
        </mxCell>
        <mxCell id="YrsRfxU72Jp1Rr0Pop5z-6" value="Convs 1D" style="rounded=0;whiteSpace=wrap;html=1;fillColor=#cdeb8b;strokeColor=#000000;fontColor=#000000;fontSize=16;strokeWidth=2;" parent="NejRVtAzuMSsaHZtRfnZ-1" vertex="1">
          <mxGeometry x="430" y="280" width="270" height="20" as="geometry" />
        </mxCell>
        <mxCell id="YrsRfxU72Jp1Rr0Pop5z-7" style="edgeStyle=orthogonalEdgeStyle;rounded=0;orthogonalLoop=1;jettySize=auto;html=1;fontSize=16;fontColor=#000000;strokeColor=#242424;strokeWidth=3;exitX=0.5;exitY=1;exitDx=0;exitDy=0;" parent="NejRVtAzuMSsaHZtRfnZ-1" source="YrsRfxU72Jp1Rr0Pop5z-6" target="YrsRfxU72Jp1Rr0Pop5z-20" edge="1">
          <mxGeometry relative="1" as="geometry">
            <mxPoint x="565" y="310" as="sourcePoint" />
          </mxGeometry>
        </mxCell>
        <mxCell id="YrsRfxU72Jp1Rr0Pop5z-18" style="edgeStyle=orthogonalEdgeStyle;rounded=0;orthogonalLoop=1;jettySize=auto;html=1;exitX=0.5;exitY=1;exitDx=0;exitDy=0;fontSize=16;fontColor=#000000;strokeColor=#242424;strokeWidth=3;" parent="NejRVtAzuMSsaHZtRfnZ-1" source="YrsRfxU72Jp1Rr0Pop5z-20" target="YrsRfxU72Jp1Rr0Pop5z-22" edge="1">
          <mxGeometry relative="1" as="geometry" />
        </mxCell>
        <mxCell id="YrsRfxU72Jp1Rr0Pop5z-20" value="LSTMs" style="rounded=0;whiteSpace=wrap;html=1;fillColor=#cdeb8b;strokeColor=#000000;fontColor=#000000;fontSize=16;strokeWidth=2;" parent="NejRVtAzuMSsaHZtRfnZ-1" vertex="1">
          <mxGeometry x="475" y="360" width="180" height="20" as="geometry" />
        </mxCell>
        <mxCell id="YrsRfxU72Jp1Rr0Pop5z-21" style="edgeStyle=orthogonalEdgeStyle;rounded=0;orthogonalLoop=1;jettySize=auto;html=1;exitX=0.5;exitY=1;exitDx=0;exitDy=0;fontSize=16;fontColor=#000000;strokeColor=#242424;strokeWidth=3;" parent="NejRVtAzuMSsaHZtRfnZ-1" source="YrsRfxU72Jp1Rr0Pop5z-22" target="YrsRfxU72Jp1Rr0Pop5z-24" edge="1">
          <mxGeometry relative="1" as="geometry" />
        </mxCell>
        <mxCell id="YrsRfxU72Jp1Rr0Pop5z-22" value="Denses" style="rounded=0;whiteSpace=wrap;html=1;fillColor=#cdeb8b;strokeColor=#000000;fontColor=#000000;fontSize=16;strokeWidth=2;" parent="NejRVtAzuMSsaHZtRfnZ-1" vertex="1">
          <mxGeometry x="490" y="430" width="150" height="20" as="geometry" />
        </mxCell>
        <mxCell id="HWbG_2tJwNriDN3q_1bn-0" style="edgeStyle=orthogonalEdgeStyle;rounded=0;orthogonalLoop=1;jettySize=auto;html=1;exitX=0;exitY=0.5;exitDx=0;exitDy=0;entryX=0.5;entryY=0;entryDx=0;entryDy=0;dashed=1;fontSize=16;fontColor=#000000;strokeColor=#FF0000;strokeWidth=3;" parent="NejRVtAzuMSsaHZtRfnZ-1" source="YrsRfxU72Jp1Rr0Pop5z-24" target="YrsRfxU72Jp1Rr0Pop5z-4" edge="1">
          <mxGeometry relative="1" as="geometry">
            <Array as="points">
              <mxPoint x="240" y="520" />
              <mxPoint x="240" y="150" />
              <mxPoint x="455" y="150" />
            </Array>
          </mxGeometry>
        </mxCell>
        <mxCell id="YrsRfxU72Jp1Rr0Pop5z-24" value="R" style="rounded=0;whiteSpace=wrap;html=1;fillColor=#cdeb8b;strokeColor=#000000;fontColor=#000000;fontSize=16;strokeWidth=2;" parent="NejRVtAzuMSsaHZtRfnZ-1" vertex="1">
          <mxGeometry x="545" y="500" width="40" height="40" as="geometry" />
        </mxCell>
        <mxCell id="YrsRfxU72Jp1Rr0Pop5z-25" value="&lt;span style=&quot;font-size: 12px&quot;&gt;features comparisons&lt;/span&gt;" style="shape=umlFrame;whiteSpace=wrap;html=1;fontSize=16;strokeWidth=3;fillColor=#ffff88;fontColor=#000000;dashed=1;width=200;height=20;dashPattern=1 1;strokeColor=#4D4D4D;" parent="NejRVtAzuMSsaHZtRfnZ-1" vertex="1">
          <mxGeometry x="270" y="390" width="450" height="80" as="geometry" />
        </mxCell>
      </root>
    </mxGraphModel>
  </diagram>
  <diagram id="71kF5EDu7Xd4J7HOVgmW" name="V-3">
    <mxGraphModel dx="1185" dy="644" grid="1" gridSize="10" guides="1" tooltips="1" connect="1" arrows="1" fold="1" page="1" pageScale="1" pageWidth="1654" pageHeight="2336" background="#ffffff" math="0" shadow="0">
      <root>
        <mxCell id="0" />
        <mxCell id="1" parent="0" />
        <mxCell id="NpHuEWvjegk_j8p4NuT1-38" value="&lt;font style=&quot;font-size: 12px&quot;&gt;Features extraction&lt;/font&gt;" style="shape=umlFrame;whiteSpace=wrap;html=1;fontSize=16;strokeWidth=3;fontColor=#000000;dashed=1;width=180;height=30;fillColor=#ffff88;dashPattern=1 1;strokeColor=#4D4D4D;" parent="1" vertex="1">
          <mxGeometry x="160" y="200" width="450" height="100" as="geometry" />
        </mxCell>
        <mxCell id="NpHuEWvjegk_j8p4NuT1-36" value="&lt;span style=&quot;font-size: 12px&quot;&gt;Identification of temporal regularity&lt;/span&gt;" style="shape=umlFrame;whiteSpace=wrap;html=1;fontSize=16;strokeWidth=3;fillColor=#ffff88;fontColor=#000000;strokeColor=#4D4D4D;dashed=1;width=210;height=30;dashPattern=1 1;" parent="1" vertex="1">
          <mxGeometry x="160" y="300" width="450" height="90" as="geometry" />
        </mxCell>
        <mxCell id="NpHuEWvjegk_j8p4NuT1-4" style="edgeStyle=orthogonalEdgeStyle;rounded=0;orthogonalLoop=1;jettySize=auto;html=1;exitX=0.5;exitY=1;exitDx=0;exitDy=0;strokeColor=#242424;strokeWidth=3;entryX=0.5;entryY=0;entryDx=0;entryDy=0;" parent="1" source="NpHuEWvjegk_j8p4NuT1-1" target="NpHuEWvjegk_j8p4NuT1-6" edge="1">
          <mxGeometry relative="1" as="geometry">
            <mxPoint x="460" y="205" as="targetPoint" />
            <Array as="points">
              <mxPoint x="540" y="190" />
              <mxPoint x="455" y="190" />
            </Array>
          </mxGeometry>
        </mxCell>
        <mxCell id="NpHuEWvjegk_j8p4NuT1-1" value="ECG (3 channels, 400 pts)" style="rounded=0;whiteSpace=wrap;html=1;fillColor=#cdeb8b;strokeColor=#000000;fontColor=#000000;fontSize=16;strokeWidth=2;" parent="1" vertex="1">
          <mxGeometry x="435" y="120" width="210" height="40" as="geometry" />
        </mxCell>
        <mxCell id="NpHuEWvjegk_j8p4NuT1-5" style="edgeStyle=orthogonalEdgeStyle;rounded=0;orthogonalLoop=1;jettySize=auto;html=1;exitX=0.5;exitY=1;exitDx=0;exitDy=0;strokeColor=#242424;strokeWidth=3;entryX=0.5;entryY=0;entryDx=0;entryDy=0;" parent="1" source="NpHuEWvjegk_j8p4NuT1-3" target="NpHuEWvjegk_j8p4NuT1-6" edge="1">
          <mxGeometry relative="1" as="geometry">
            <mxPoint x="460" y="210" as="targetPoint" />
            <Array as="points">
              <mxPoint x="320" y="190" />
              <mxPoint x="455" y="190" />
            </Array>
          </mxGeometry>
        </mxCell>
        <mxCell id="NpHuEWvjegk_j8p4NuT1-3" value="Last 400 R predicitions" style="rounded=0;whiteSpace=wrap;html=1;fillColor=#cdeb8b;fontSize=16;fontColor=#000000;strokeColor=#000000;strokeWidth=2;" parent="1" vertex="1">
          <mxGeometry x="230" y="120" width="180" height="40" as="geometry" />
        </mxCell>
        <mxCell id="NpHuEWvjegk_j8p4NuT1-6" value="Convs 1D" style="rounded=0;whiteSpace=wrap;html=1;fillColor=#cdeb8b;strokeColor=#000000;fontColor=#000000;fontSize=16;strokeWidth=2;" parent="1" vertex="1">
          <mxGeometry x="320" y="250" width="270" height="20" as="geometry" />
        </mxCell>
        <mxCell id="NpHuEWvjegk_j8p4NuT1-24" style="edgeStyle=orthogonalEdgeStyle;rounded=0;orthogonalLoop=1;jettySize=auto;html=1;exitX=0.5;exitY=1;exitDx=0;exitDy=0;fontSize=16;fontColor=#000000;strokeColor=#242424;strokeWidth=3;" parent="1" source="NpHuEWvjegk_j8p4NuT1-6" target="NpHuEWvjegk_j8p4NuT1-23" edge="1">
          <mxGeometry relative="1" as="geometry">
            <mxPoint x="455" y="310" as="sourcePoint" />
          </mxGeometry>
        </mxCell>
        <mxCell id="NpHuEWvjegk_j8p4NuT1-12" style="edgeStyle=orthogonalEdgeStyle;rounded=0;orthogonalLoop=1;jettySize=auto;html=1;exitX=0.5;exitY=1;exitDx=0;exitDy=0;fontSize=16;fontColor=#000000;strokeColor=#242424;strokeWidth=3;entryX=0.5;entryY=0;entryDx=0;entryDy=0;" parent="1" source="NpHuEWvjegk_j8p4NuT1-9" target="NpHuEWvjegk_j8p4NuT1-13" edge="1">
          <mxGeometry relative="1" as="geometry">
            <mxPoint x="927" y="220" as="targetPoint" />
          </mxGeometry>
        </mxCell>
        <mxCell id="NpHuEWvjegk_j8p4NuT1-9" value="&lt;font color=&quot;#000000&quot;&gt;F&lt;sub&gt;n&lt;/sub&gt;&lt;/font&gt;" style="rounded=0;whiteSpace=wrap;html=1;fillColor=#cce5ff;strokeColor=#36393d;fontSize=16;strokeWidth=2;" parent="1" vertex="1">
          <mxGeometry x="870" y="120" width="160" height="40" as="geometry" />
        </mxCell>
        <mxCell id="NpHuEWvjegk_j8p4NuT1-16" style="edgeStyle=orthogonalEdgeStyle;rounded=0;orthogonalLoop=1;jettySize=auto;html=1;exitX=0.5;exitY=1;exitDx=0;exitDy=0;entryX=0.5;entryY=0;entryDx=0;entryDy=0;fontSize=16;fontColor=#000000;strokeColor=#242424;strokeWidth=3;" parent="1" source="NpHuEWvjegk_j8p4NuT1-13" target="NpHuEWvjegk_j8p4NuT1-15" edge="1">
          <mxGeometry relative="1" as="geometry" />
        </mxCell>
        <mxCell id="NpHuEWvjegk_j8p4NuT1-29" style="edgeStyle=orthogonalEdgeStyle;rounded=0;orthogonalLoop=1;jettySize=auto;html=1;exitX=0;exitY=0.5;exitDx=0;exitDy=0;entryX=1;entryY=0.5;entryDx=0;entryDy=0;fontSize=16;fontColor=#000000;strokeColor=#242424;strokeWidth=3;" parent="1" source="NpHuEWvjegk_j8p4NuT1-13" target="NpHuEWvjegk_j8p4NuT1-25" edge="1">
          <mxGeometry relative="1" as="geometry">
            <Array as="points">
              <mxPoint x="830" y="240" />
              <mxPoint x="830" y="440" />
            </Array>
          </mxGeometry>
        </mxCell>
        <mxCell id="NpHuEWvjegk_j8p4NuT1-13" value="&lt;font color=&quot;#000000&quot;&gt;Denses&lt;/font&gt;" style="rounded=0;whiteSpace=wrap;html=1;fillColor=#cce5ff;strokeColor=#36393d;fontSize=16;strokeWidth=2;" parent="1" vertex="1">
          <mxGeometry x="870" y="230" width="160" height="20" as="geometry" />
        </mxCell>
        <mxCell id="NpHuEWvjegk_j8p4NuT1-19" style="edgeStyle=orthogonalEdgeStyle;rounded=0;orthogonalLoop=1;jettySize=auto;html=1;exitX=0.5;exitY=1;exitDx=0;exitDy=0;entryX=0.5;entryY=0;entryDx=0;entryDy=0;fontSize=16;fontColor=#000000;strokeColor=#242424;strokeWidth=3;" parent="1" source="NpHuEWvjegk_j8p4NuT1-15" target="NpHuEWvjegk_j8p4NuT1-18" edge="1">
          <mxGeometry relative="1" as="geometry" />
        </mxCell>
        <mxCell id="NpHuEWvjegk_j8p4NuT1-15" value="&lt;font color=&quot;#000000&quot;&gt;Denses&lt;/font&gt;" style="rounded=0;whiteSpace=wrap;html=1;fillColor=#cce5ff;strokeColor=#36393d;fontSize=16;strokeWidth=2;" parent="1" vertex="1">
          <mxGeometry x="870" y="340" width="160" height="20" as="geometry" />
        </mxCell>
        <mxCell id="NpHuEWvjegk_j8p4NuT1-31" style="edgeStyle=orthogonalEdgeStyle;rounded=0;orthogonalLoop=1;jettySize=auto;html=1;exitX=1;exitY=0.5;exitDx=0;exitDy=0;entryX=1;entryY=0.5;entryDx=0;entryDy=0;fontSize=16;fontColor=#000000;strokeWidth=3;dashed=1;strokeColor=#FF0000;" parent="1" source="NpHuEWvjegk_j8p4NuT1-18" target="NpHuEWvjegk_j8p4NuT1-9" edge="1">
          <mxGeometry relative="1" as="geometry">
            <Array as="points">
              <mxPoint x="1100" y="520" />
              <mxPoint x="1100" y="140" />
            </Array>
          </mxGeometry>
        </mxCell>
        <mxCell id="NpHuEWvjegk_j8p4NuT1-18" value="&lt;font color=&quot;#000000&quot;&gt;F&lt;sub&gt;n+1&lt;/sub&gt;&lt;/font&gt;" style="rounded=0;whiteSpace=wrap;html=1;fillColor=#cce5ff;strokeColor=#36393d;fontSize=16;strokeWidth=2;" parent="1" vertex="1">
          <mxGeometry x="870" y="500" width="160" height="40" as="geometry" />
        </mxCell>
        <mxCell id="NpHuEWvjegk_j8p4NuT1-26" style="edgeStyle=orthogonalEdgeStyle;rounded=0;orthogonalLoop=1;jettySize=auto;html=1;exitX=0.5;exitY=1;exitDx=0;exitDy=0;fontSize=16;fontColor=#000000;strokeColor=#242424;strokeWidth=3;" parent="1" source="NpHuEWvjegk_j8p4NuT1-23" target="NpHuEWvjegk_j8p4NuT1-25" edge="1">
          <mxGeometry relative="1" as="geometry" />
        </mxCell>
        <mxCell id="Tqp-wjKCbTiyUEtV20um-1" style="edgeStyle=orthogonalEdgeStyle;rounded=0;orthogonalLoop=1;jettySize=auto;html=1;exitX=1;exitY=0.5;exitDx=0;exitDy=0;fontSize=16;fontColor=#000000;strokeColor=#242424;strokeWidth=3;entryX=0;entryY=0.5;entryDx=0;entryDy=0;startArrow=none;" parent="1" source="NpHuEWvjegk_j8p4NuT1-39" target="NpHuEWvjegk_j8p4NuT1-15" edge="1">
          <mxGeometry relative="1" as="geometry">
            <mxPoint x="700" y="380" as="targetPoint" />
            <Array as="points">
              <mxPoint x="800" y="350" />
            </Array>
          </mxGeometry>
        </mxCell>
        <mxCell id="NpHuEWvjegk_j8p4NuT1-23" value="LSTMs" style="rounded=0;whiteSpace=wrap;html=1;fillColor=#cdeb8b;strokeColor=#000000;fontColor=#000000;fontSize=16;strokeWidth=2;" parent="1" vertex="1">
          <mxGeometry x="365" y="340" width="180" height="20" as="geometry" />
        </mxCell>
        <mxCell id="NpHuEWvjegk_j8p4NuT1-28" style="edgeStyle=orthogonalEdgeStyle;rounded=0;orthogonalLoop=1;jettySize=auto;html=1;exitX=0.5;exitY=1;exitDx=0;exitDy=0;fontSize=16;fontColor=#000000;strokeColor=#242424;strokeWidth=3;" parent="1" source="NpHuEWvjegk_j8p4NuT1-25" target="NpHuEWvjegk_j8p4NuT1-27" edge="1">
          <mxGeometry relative="1" as="geometry" />
        </mxCell>
        <mxCell id="NpHuEWvjegk_j8p4NuT1-25" value="Denses" style="rounded=0;whiteSpace=wrap;html=1;fillColor=#cdeb8b;strokeColor=#000000;fontColor=#000000;fontSize=16;strokeWidth=2;" parent="1" vertex="1">
          <mxGeometry x="380" y="430" width="150" height="20" as="geometry" />
        </mxCell>
        <mxCell id="NpHuEWvjegk_j8p4NuT1-32" style="edgeStyle=orthogonalEdgeStyle;rounded=0;orthogonalLoop=1;jettySize=auto;html=1;exitX=0;exitY=0.5;exitDx=0;exitDy=0;entryX=0.5;entryY=0;entryDx=0;entryDy=0;dashed=1;fontSize=16;fontColor=#000000;strokeWidth=3;strokeColor=#FF0000;" parent="1" source="NpHuEWvjegk_j8p4NuT1-27" target="NpHuEWvjegk_j8p4NuT1-3" edge="1">
          <mxGeometry relative="1" as="geometry">
            <Array as="points">
              <mxPoint x="120" y="520" />
              <mxPoint x="120" y="90" />
              <mxPoint x="320" y="90" />
            </Array>
          </mxGeometry>
        </mxCell>
        <mxCell id="NpHuEWvjegk_j8p4NuT1-27" value="R" style="rounded=0;whiteSpace=wrap;html=1;fillColor=#cdeb8b;strokeColor=#000000;fontColor=#000000;fontSize=16;strokeWidth=2;" parent="1" vertex="1">
          <mxGeometry x="435" y="500" width="40" height="40" as="geometry" />
        </mxCell>
        <mxCell id="NpHuEWvjegk_j8p4NuT1-37" value="&lt;span style=&quot;font-size: 12px&quot;&gt;local&amp;nbsp;+&amp;nbsp;&lt;/span&gt;&lt;span style=&quot;font-size: 13px&quot;&gt;global features &lt;br&gt;&lt;/span&gt;&lt;span style=&quot;font-size: 12px&quot;&gt;comparisons&lt;/span&gt;&lt;span style=&quot;font-size: 12px&quot;&gt;&lt;br&gt;&lt;/span&gt;" style="shape=umlFrame;whiteSpace=wrap;html=1;fontSize=16;strokeWidth=3;fillColor=#ffff88;fontColor=#000000;dashed=1;width=190;height=70;dashPattern=1 1;strokeColor=#4D4D4D;" parent="1" vertex="1">
          <mxGeometry x="160" y="390" width="450" height="80" as="geometry" />
        </mxCell>
        <mxCell id="NpHuEWvjegk_j8p4NuT1-42" value="&lt;div&gt;&lt;span style=&quot;font-size: 13px&quot;&gt;Sending global functionality for the&lt;/span&gt;&lt;/div&gt;&lt;div&gt;&lt;span style=&quot;font-size: 13px&quot;&gt;Time consistency&lt;/span&gt;&lt;/div&gt;" style="whiteSpace=wrap;html=1;dashed=1;dashPattern=1 1;fontSize=16;fontColor=#000000;strokeColor=#4D4D4D;strokeWidth=3;fillColor=#ffff88;" parent="1" vertex="1">
          <mxGeometry x="640" y="416.25" width="170" height="63.75" as="geometry" />
        </mxCell>
        <mxCell id="MvCLk8iv76WedTZajaVM-1" value="&lt;font style=&quot;font-size: 12px&quot;&gt;update features&lt;/font&gt;" style="whiteSpace=wrap;html=1;dashed=1;dashPattern=1 1;fontSize=16;fontColor=#000000;strokeColor=#4D4D4D;strokeWidth=3;fillColor=#ffff88;" parent="1" vertex="1">
          <mxGeometry x="890" y="402.5" width="120" height="27.5" as="geometry" />
        </mxCell>
        <mxCell id="MvCLk8iv76WedTZajaVM-2" value="&lt;font style=&quot;font-size: 12px&quot;&gt;prepare last features to be updated&lt;/font&gt;" style="whiteSpace=wrap;html=1;dashed=1;dashPattern=1 1;fontSize=16;fontColor=#000000;strokeColor=#4D4D4D;strokeWidth=3;fillColor=#ffff88;" parent="1" vertex="1">
          <mxGeometry x="870" y="262.5" width="160" height="50" as="geometry" />
        </mxCell>
        <mxCell id="MvCLk8iv76WedTZajaVM-3" value="&lt;font style=&quot;font-size: 12px&quot;&gt;Global features treatment&lt;/font&gt;" style="whiteSpace=wrap;html=1;dashed=1;dashPattern=1 1;fontSize=16;fontColor=#000000;strokeColor=#4D4D4D;strokeWidth=3;fillColor=#ffff88;" parent="1" vertex="1">
          <mxGeometry x="870" y="180" width="160" height="20" as="geometry" />
        </mxCell>
        <mxCell id="NpHuEWvjegk_j8p4NuT1-39" value="Local features transmission&lt;br&gt;&lt;font style=&quot;font-size: 11px&quot;&gt;(to update global features)&lt;/font&gt;" style="whiteSpace=wrap;html=1;dashed=1;dashPattern=1 1;fontSize=16;fontColor=#000000;strokeColor=#4D4D4D;strokeWidth=3;fillColor=#ffff88;" parent="1" vertex="1">
          <mxGeometry x="640" y="312.5" width="170" height="75" as="geometry" />
        </mxCell>
        <mxCell id="ohFYdd9FbATUfTWP2fYj-1" value="" style="edgeStyle=orthogonalEdgeStyle;rounded=0;orthogonalLoop=1;jettySize=auto;html=1;exitX=1;exitY=0.5;exitDx=0;exitDy=0;fontSize=16;fontColor=#000000;strokeColor=#242424;strokeWidth=3;entryX=0;entryY=0.5;entryDx=0;entryDy=0;endArrow=none;" parent="1" source="NpHuEWvjegk_j8p4NuT1-23" target="NpHuEWvjegk_j8p4NuT1-39" edge="1">
          <mxGeometry relative="1" as="geometry">
            <mxPoint x="870" y="370" as="targetPoint" />
            <mxPoint x="545" y="350" as="sourcePoint" />
            <Array as="points">
              <mxPoint x="630" y="350" />
            </Array>
          </mxGeometry>
        </mxCell>
      </root>
    </mxGraphModel>
  </diagram>
  <diagram id="qK85ZbLuHDOHgMKsAaL1" name="V-3_training_model">
    <mxGraphModel dx="1185" dy="644" grid="1" gridSize="10" guides="1" tooltips="1" connect="1" arrows="1" fold="1" page="1" pageScale="1" pageWidth="1654" pageHeight="2336" background="#ffffff" math="0" shadow="0">
      <root>
        <mxCell id="8bUNjWwSQTaxmUKhKWBt-0" />
        <mxCell id="8bUNjWwSQTaxmUKhKWBt-1" parent="8bUNjWwSQTaxmUKhKWBt-0" />
        <mxCell id="8bUNjWwSQTaxmUKhKWBt-26" value="&lt;font style=&quot;font-size: 12px&quot;&gt;Identification of temporal regularity&lt;/font&gt;" style="shape=umlFrame;whiteSpace=wrap;html=1;fontSize=16;strokeWidth=3;fillColor=#ffff88;fontColor=#000000;strokeColor=#4D4D4D;dashed=1;width=200;height=30;dashPattern=1 1;" parent="8bUNjWwSQTaxmUKhKWBt-1" vertex="1">
          <mxGeometry x="160" y="320" width="450" height="70" as="geometry" />
        </mxCell>
        <mxCell id="8bUNjWwSQTaxmUKhKWBt-27" value="&lt;span style=&quot;font-size: 12px&quot;&gt;local&amp;nbsp;+&amp;nbsp;&lt;/span&gt;&lt;span style=&quot;font-size: 13px&quot;&gt;global features &lt;br&gt;&lt;/span&gt;&lt;span style=&quot;font-size: 12px&quot;&gt;comparisons&lt;/span&gt;&lt;span style=&quot;font-size: 12px&quot;&gt;&lt;br&gt;&lt;/span&gt;" style="shape=umlFrame;whiteSpace=wrap;html=1;fontSize=16;strokeWidth=3;fillColor=#ffff88;fontColor=#000000;dashed=1;width=190;height=70;dashPattern=1 1;strokeColor=#4D4D4D;" parent="8bUNjWwSQTaxmUKhKWBt-1" vertex="1">
          <mxGeometry x="160" y="390" width="450" height="80" as="geometry" />
        </mxCell>
        <mxCell id="8bUNjWwSQTaxmUKhKWBt-28" value="&lt;font style=&quot;font-size: 12px&quot;&gt;Features extraction&lt;/font&gt;" style="shape=umlFrame;whiteSpace=wrap;html=1;fontSize=16;strokeWidth=3;fontColor=#000000;dashed=1;width=180;height=30;fillColor=#ffff88;dashPattern=1 1;strokeColor=#4D4D4D;" parent="8bUNjWwSQTaxmUKhKWBt-1" vertex="1">
          <mxGeometry x="160" y="200" width="450" height="120" as="geometry" />
        </mxCell>
        <mxCell id="8bUNjWwSQTaxmUKhKWBt-2" style="edgeStyle=orthogonalEdgeStyle;rounded=0;orthogonalLoop=1;jettySize=auto;html=1;exitX=0.5;exitY=1;exitDx=0;exitDy=0;strokeColor=#242424;strokeWidth=3;entryX=0.5;entryY=0;entryDx=0;entryDy=0;" parent="8bUNjWwSQTaxmUKhKWBt-1" source="8bUNjWwSQTaxmUKhKWBt-3" target="8bUNjWwSQTaxmUKhKWBt-8" edge="1">
          <mxGeometry relative="1" as="geometry">
            <mxPoint x="460" y="205" as="targetPoint" />
            <Array as="points">
              <mxPoint x="505" y="190" />
              <mxPoint x="455" y="190" />
            </Array>
          </mxGeometry>
        </mxCell>
        <mxCell id="8bUNjWwSQTaxmUKhKWBt-3" value="ECG (3 channels, 400 pts)" style="rounded=0;whiteSpace=wrap;html=1;fillColor=#cdeb8b;strokeColor=#000000;fontColor=#000000;fontSize=16;strokeWidth=2;" parent="8bUNjWwSQTaxmUKhKWBt-1" vertex="1">
          <mxGeometry x="400" y="120" width="210" height="40" as="geometry" />
        </mxCell>
        <mxCell id="8bUNjWwSQTaxmUKhKWBt-4" style="edgeStyle=orthogonalEdgeStyle;rounded=0;orthogonalLoop=1;jettySize=auto;html=1;exitX=0.5;exitY=1;exitDx=0;exitDy=0;strokeColor=#242424;strokeWidth=3;entryX=0.5;entryY=0;entryDx=0;entryDy=0;" parent="8bUNjWwSQTaxmUKhKWBt-1" source="8bUNjWwSQTaxmUKhKWBt-5" target="8bUNjWwSQTaxmUKhKWBt-8" edge="1">
          <mxGeometry relative="1" as="geometry">
            <mxPoint x="460" y="210" as="targetPoint" />
            <Array as="points">
              <mxPoint x="290" y="190" />
              <mxPoint x="455" y="190" />
            </Array>
          </mxGeometry>
        </mxCell>
        <mxCell id="8bUNjWwSQTaxmUKhKWBt-6" style="edgeStyle=orthogonalEdgeStyle;rounded=0;orthogonalLoop=1;jettySize=auto;html=1;exitX=0.5;exitY=1;exitDx=0;exitDy=0;entryX=0.5;entryY=0;entryDx=0;entryDy=0;fontSize=16;fontColor=#000000;strokeColor=#242424;strokeWidth=3;" parent="8bUNjWwSQTaxmUKhKWBt-1" source="8bUNjWwSQTaxmUKhKWBt-8" target="8bUNjWwSQTaxmUKhKWBt-10" edge="1">
          <mxGeometry relative="1" as="geometry" />
        </mxCell>
        <mxCell id="8bUNjWwSQTaxmUKhKWBt-8" value="Convs 1D" style="rounded=0;whiteSpace=wrap;html=1;fillColor=#cdeb8b;strokeColor=#000000;fontColor=#000000;fontSize=16;strokeWidth=2;" parent="8bUNjWwSQTaxmUKhKWBt-1" vertex="1">
          <mxGeometry x="320" y="240" width="270" height="20" as="geometry" />
        </mxCell>
        <mxCell id="8bUNjWwSQTaxmUKhKWBt-9" style="edgeStyle=orthogonalEdgeStyle;rounded=0;orthogonalLoop=1;jettySize=auto;html=1;exitX=0.5;exitY=1;exitDx=0;exitDy=0;fontSize=16;fontColor=#000000;strokeColor=#242424;strokeWidth=3;" parent="8bUNjWwSQTaxmUKhKWBt-1" source="8bUNjWwSQTaxmUKhKWBt-10" target="8bUNjWwSQTaxmUKhKWBt-21" edge="1">
          <mxGeometry relative="1" as="geometry" />
        </mxCell>
        <mxCell id="8bUNjWwSQTaxmUKhKWBt-10" value="Convs 1D" style="rounded=0;whiteSpace=wrap;html=1;fillColor=#cdeb8b;strokeColor=#000000;fontColor=#000000;fontSize=16;strokeWidth=2;" parent="8bUNjWwSQTaxmUKhKWBt-1" vertex="1">
          <mxGeometry x="345" y="290" width="220" height="20" as="geometry" />
        </mxCell>
        <mxCell id="8bUNjWwSQTaxmUKhKWBt-13" style="edgeStyle=orthogonalEdgeStyle;rounded=0;orthogonalLoop=1;jettySize=auto;html=1;exitX=0.5;exitY=1;exitDx=0;exitDy=0;entryX=0.5;entryY=0;entryDx=0;entryDy=0;fontSize=16;fontColor=#000000;strokeColor=#242424;strokeWidth=3;" parent="8bUNjWwSQTaxmUKhKWBt-1" source="8bUNjWwSQTaxmUKhKWBt-15" target="8bUNjWwSQTaxmUKhKWBt-17" edge="1">
          <mxGeometry relative="1" as="geometry" />
        </mxCell>
        <mxCell id="8bUNjWwSQTaxmUKhKWBt-15" value="&lt;font color=&quot;#000000&quot;&gt;Denses&lt;/font&gt;" style="rounded=0;whiteSpace=wrap;html=1;fillColor=#cce5ff;strokeColor=#36393d;fontSize=16;strokeWidth=2;" parent="8bUNjWwSQTaxmUKhKWBt-1" vertex="1">
          <mxGeometry x="850" y="130" width="160" height="20" as="geometry" />
        </mxCell>
        <mxCell id="8bUNjWwSQTaxmUKhKWBt-16" style="edgeStyle=orthogonalEdgeStyle;rounded=0;orthogonalLoop=1;jettySize=auto;html=1;exitX=0.5;exitY=1;exitDx=0;exitDy=0;entryX=0.5;entryY=0;entryDx=0;entryDy=0;fontSize=16;fontColor=#000000;strokeColor=#242424;strokeWidth=3;" parent="8bUNjWwSQTaxmUKhKWBt-1" source="8bUNjWwSQTaxmUKhKWBt-17" target="8bUNjWwSQTaxmUKhKWBt-19" edge="1">
          <mxGeometry relative="1" as="geometry" />
        </mxCell>
        <mxCell id="8bUNjWwSQTaxmUKhKWBt-17" value="&lt;font color=&quot;#000000&quot;&gt;Denses&lt;/font&gt;" style="rounded=0;whiteSpace=wrap;html=1;fillColor=#cce5ff;strokeColor=#36393d;fontSize=16;strokeWidth=2;" parent="8bUNjWwSQTaxmUKhKWBt-1" vertex="1">
          <mxGeometry x="740" y="240" width="160" height="20" as="geometry" />
        </mxCell>
        <mxCell id="IgPpX2DU-lZukZ8V6ChD-1" style="edgeStyle=orthogonalEdgeStyle;rounded=0;orthogonalLoop=1;jettySize=auto;html=1;exitX=0.5;exitY=1;exitDx=0;exitDy=0;entryX=0.5;entryY=0;entryDx=0;entryDy=0;" parent="8bUNjWwSQTaxmUKhKWBt-1" source="8bUNjWwSQTaxmUKhKWBt-19" target="IgPpX2DU-lZukZ8V6ChD-0" edge="1">
          <mxGeometry relative="1" as="geometry" />
        </mxCell>
        <mxCell id="IgPpX2DU-lZukZ8V6ChD-2" style="edgeStyle=orthogonalEdgeStyle;rounded=0;orthogonalLoop=1;jettySize=auto;html=1;exitX=0.5;exitY=1;exitDx=0;exitDy=0;entryX=0.5;entryY=0;entryDx=0;entryDy=0;strokeColor=#000000;strokeWidth=3;" parent="8bUNjWwSQTaxmUKhKWBt-1" source="8bUNjWwSQTaxmUKhKWBt-19" target="IgPpX2DU-lZukZ8V6ChD-0" edge="1">
          <mxGeometry relative="1" as="geometry" />
        </mxCell>
        <mxCell id="8bUNjWwSQTaxmUKhKWBt-19" value="&lt;font color=&quot;#000000&quot;&gt;F&lt;sub&gt;n&lt;/sub&gt;&lt;/font&gt;" style="rounded=0;whiteSpace=wrap;html=1;fillColor=#cce5ff;strokeColor=#36393d;fontSize=16;strokeWidth=2;" parent="8bUNjWwSQTaxmUKhKWBt-1" vertex="1">
          <mxGeometry x="740" y="300" width="160" height="40" as="geometry" />
        </mxCell>
        <mxCell id="rNkkjiLR5mmfDU43yvuX-2" style="edgeStyle=orthogonalEdgeStyle;rounded=0;orthogonalLoop=1;jettySize=auto;html=1;exitX=1;exitY=0.5;exitDx=0;exitDy=0;dashed=1;fontSize=16;fontColor=#000000;strokeColor=#FF0000;strokeWidth=3;entryX=0;entryY=0.5;entryDx=0;entryDy=0;" parent="8bUNjWwSQTaxmUKhKWBt-1" source="8bUNjWwSQTaxmUKhKWBt-21" target="8bUNjWwSQTaxmUKhKWBt-34" edge="1">
          <mxGeometry relative="1" as="geometry">
            <mxPoint x="660" y="320" as="targetPoint" />
            <Array as="points">
              <mxPoint x="640" y="370" />
              <mxPoint x="640" y="140" />
            </Array>
          </mxGeometry>
        </mxCell>
        <mxCell id="8bUNjWwSQTaxmUKhKWBt-20" style="edgeStyle=orthogonalEdgeStyle;rounded=0;orthogonalLoop=1;jettySize=auto;html=1;exitX=0.5;exitY=1;exitDx=0;exitDy=0;fontSize=16;fontColor=#000000;strokeColor=#242424;strokeWidth=3;" parent="8bUNjWwSQTaxmUKhKWBt-1" source="8bUNjWwSQTaxmUKhKWBt-21" target="8bUNjWwSQTaxmUKhKWBt-23" edge="1">
          <mxGeometry relative="1" as="geometry" />
        </mxCell>
        <mxCell id="8bUNjWwSQTaxmUKhKWBt-21" value="LSTMs" style="rounded=0;whiteSpace=wrap;html=1;fillColor=#cdeb8b;strokeColor=#000000;fontColor=#000000;fontSize=16;strokeWidth=2;" parent="8bUNjWwSQTaxmUKhKWBt-1" vertex="1">
          <mxGeometry x="365" y="360" width="180" height="20" as="geometry" />
        </mxCell>
        <mxCell id="8bUNjWwSQTaxmUKhKWBt-22" style="edgeStyle=orthogonalEdgeStyle;rounded=0;orthogonalLoop=1;jettySize=auto;html=1;exitX=0.5;exitY=1;exitDx=0;exitDy=0;fontSize=16;fontColor=#000000;strokeColor=#242424;strokeWidth=3;" parent="8bUNjWwSQTaxmUKhKWBt-1" source="8bUNjWwSQTaxmUKhKWBt-23" target="8bUNjWwSQTaxmUKhKWBt-25" edge="1">
          <mxGeometry relative="1" as="geometry" />
        </mxCell>
        <mxCell id="8bUNjWwSQTaxmUKhKWBt-23" value="Denses" style="rounded=0;whiteSpace=wrap;html=1;fillColor=#cdeb8b;strokeColor=#000000;fontColor=#000000;fontSize=16;strokeWidth=2;" parent="8bUNjWwSQTaxmUKhKWBt-1" vertex="1">
          <mxGeometry x="380" y="430" width="150" height="20" as="geometry" />
        </mxCell>
        <mxCell id="8bUNjWwSQTaxmUKhKWBt-24" style="edgeStyle=orthogonalEdgeStyle;rounded=0;orthogonalLoop=1;jettySize=auto;html=1;exitX=0;exitY=0.5;exitDx=0;exitDy=0;entryX=0.5;entryY=0;entryDx=0;entryDy=0;dashed=1;fontSize=16;fontColor=#000000;strokeWidth=3;strokeColor=#FF0000;" parent="8bUNjWwSQTaxmUKhKWBt-1" source="8bUNjWwSQTaxmUKhKWBt-25" target="8bUNjWwSQTaxmUKhKWBt-5" edge="1">
          <mxGeometry relative="1" as="geometry">
            <Array as="points">
              <mxPoint x="120" y="520" />
              <mxPoint x="120" y="100" />
              <mxPoint x="290" y="100" />
            </Array>
          </mxGeometry>
        </mxCell>
        <mxCell id="8bUNjWwSQTaxmUKhKWBt-25" value="R" style="rounded=0;whiteSpace=wrap;html=1;fillColor=#cdeb8b;strokeColor=#000000;fontColor=#000000;fontSize=16;strokeWidth=2;" parent="8bUNjWwSQTaxmUKhKWBt-1" vertex="1">
          <mxGeometry x="435" y="500" width="40" height="40" as="geometry" />
        </mxCell>
        <mxCell id="IgPpX2DU-lZukZ8V6ChD-4" style="edgeStyle=orthogonalEdgeStyle;rounded=0;orthogonalLoop=1;jettySize=auto;html=1;exitX=0.5;exitY=1;exitDx=0;exitDy=0;entryX=0.5;entryY=0;entryDx=0;entryDy=0;strokeColor=#000000;strokeWidth=3;" parent="8bUNjWwSQTaxmUKhKWBt-1" source="8bUNjWwSQTaxmUKhKWBt-34" target="8bUNjWwSQTaxmUKhKWBt-17" edge="1">
          <mxGeometry relative="1" as="geometry" />
        </mxCell>
        <mxCell id="8bUNjWwSQTaxmUKhKWBt-34" value="Dense" style="rounded=0;whiteSpace=wrap;html=1;fillColor=#cdeb8b;strokeColor=#000000;fontColor=#000000;fontSize=16;strokeWidth=2;" parent="8bUNjWwSQTaxmUKhKWBt-1" vertex="1">
          <mxGeometry x="680" y="130" width="155" height="20" as="geometry" />
        </mxCell>
        <mxCell id="IgPpX2DU-lZukZ8V6ChD-3" style="edgeStyle=orthogonalEdgeStyle;rounded=0;orthogonalLoop=1;jettySize=auto;html=1;exitX=0.483;exitY=1.005;exitDx=0;exitDy=0;strokeColor=#000000;entryX=1;entryY=0.5;entryDx=0;entryDy=0;strokeWidth=3;exitPerimeter=0;" parent="8bUNjWwSQTaxmUKhKWBt-1" source="IgPpX2DU-lZukZ8V6ChD-0" target="8bUNjWwSQTaxmUKhKWBt-23" edge="1">
          <mxGeometry relative="1" as="geometry">
            <mxPoint x="680" y="430" as="targetPoint" />
          </mxGeometry>
        </mxCell>
        <mxCell id="rNkkjiLR5mmfDU43yvuX-0" style="edgeStyle=orthogonalEdgeStyle;rounded=0;orthogonalLoop=1;jettySize=auto;html=1;exitX=0.75;exitY=1;exitDx=0;exitDy=0;" parent="8bUNjWwSQTaxmUKhKWBt-1" source="IgPpX2DU-lZukZ8V6ChD-0" edge="1">
          <mxGeometry relative="1" as="geometry">
            <mxPoint x="1070" y="300" as="targetPoint" />
          </mxGeometry>
        </mxCell>
        <mxCell id="rNkkjiLR5mmfDU43yvuX-1" style="edgeStyle=orthogonalEdgeStyle;rounded=0;orthogonalLoop=1;jettySize=auto;html=1;exitX=1;exitY=0.5;exitDx=0;exitDy=0;entryX=1;entryY=0.5;entryDx=0;entryDy=0;dashed=1;fontSize=16;fontColor=#000000;strokeColor=#FF0000;strokeWidth=3;" parent="8bUNjWwSQTaxmUKhKWBt-1" source="IgPpX2DU-lZukZ8V6ChD-0" target="8bUNjWwSQTaxmUKhKWBt-15" edge="1">
          <mxGeometry relative="1" as="geometry" />
        </mxCell>
        <mxCell id="IgPpX2DU-lZukZ8V6ChD-0" value="&lt;font color=&quot;#000000&quot;&gt;Denses&lt;/font&gt;" style="rounded=0;whiteSpace=wrap;html=1;fillColor=#cce5ff;strokeColor=#36393d;fontSize=16;strokeWidth=2;" parent="8bUNjWwSQTaxmUKhKWBt-1" vertex="1">
          <mxGeometry x="740" y="380" width="160" height="20" as="geometry" />
        </mxCell>
        <mxCell id="8bUNjWwSQTaxmUKhKWBt-5" value="Last 400 R predicitions" style="rounded=0;whiteSpace=wrap;html=1;fillColor=#cdeb8b;fontSize=16;fontColor=#000000;strokeColor=#000000;strokeWidth=2;" parent="8bUNjWwSQTaxmUKhKWBt-1" vertex="1">
          <mxGeometry x="200" y="120" width="180" height="40" as="geometry" />
        </mxCell>
      </root>
    </mxGraphModel>
  </diagram>
</mxfile>
